# AST/ASF file generated using VICON BodyLanguage
# -----------------------------------------------
:version 1.10
:name VICON
:units
  mass 1.0
  length 0.45
  angle deg
:documentation
   .ast/.asf automatically generated from VICON data using
   VICON BodyBuilder and BodyLanguage model FoxedUp or BRILLIANT.MOD
:root
   order TX TY TZ RX RY RZ
   axis XYZ
   position 0 0 0  
   orientation 0 0 0 
:bonedata
  begin
     id 1 
     name lhipjoint
     direction 0.635376 -0.686425 0.353719 
     length 2.47244 
     axis 0 0 0  XYZ
  end
  begin
     id 2 
     name lfemur
     direction 0.34202 -0.939693 0  
     length 7.25268  
     axis 0 0 20  XYZ
    dof rx ry rz
    limits (-160.0 20.0)
           (-70.0 70.0)
           (-60.0 70.0)
  end
  begin
     id 3 
     name ltibia
     direction 0.34202 -0.939693 0   
     length 7.6767   
     axis 0 0 20   XYZ
    dof rx
    limits (-10.0 170.0)
  end
  begin
     id 4 
     name lfoot
     direction 0.0803374 -0.220725 0.972022   
     length 2.22945   
     axis -90 7.62852e-016 20   XYZ
    dof rx rz
    limits (-45.0 90.0)
           (-70.0 20.0)
  end
  begin
     id 5 
     name ltoes
     direction 1.53579e-011 -4.21994e-011 1   
     length 1.11848   
     axis -90 7.62852e-016 20   XYZ
    dof rx
    limits (-90.0 20.0)
  end
  begin
     id 6 
     name rhipjoint
     direction -0.664428 -0.664335 0.342336   
     length 2.55466  
     axis 0 0 0  XYZ 
  end
  begin
     id 7 
     name rfemur
     direction -0.34202 -0.939693 0   
     length 6.83172   
     axis 0 0 -20   XYZ
    dof rx ry rz
    limits (-160.0 20.0)
           (-70.0 70.0)
           (-70.0 60.0)
  end
  begin
     id 8 
     name rtibia
     direction -0.34202 -0.939693 0   
     length 7.62692   
     axis 0 0 -20   XYZ
    dof rx
    limits (-10.0 170.0)
 end
 begin
     id 9 
     name rfoot
     direction -0.0949276 -0.260811 0.960711   
     length 2.19684  
     axis -90 -7.62852e-016 -20   XYZ
    dof rx rz
    limits (-45.0 90.0)
           (-20.0 70.0)
  end
  begin
     id 10 
     name rtoes
     direction -1.53543e-011 -4.2183e-011 1   
     length 1.09848   
     axis -90 -7.62852e-016 -20   XYZ
    dof rx
    limits (-90.0 20.0)
  end
  begin
     id 11 
     name lowerback
     direction 0.0118782 0.999815 -0.0151555   
     length 2.15772   
     axis 0 0 0   XYZ
    dof rx ry rz
    limits (-20.0 45.0)
           (-30.0 30.0)
           (-30.0 30.0)
  end
  begin
     id 12 
     name upperback
     direction 0.00130825 0.999065 0.0432113   
     length 2.14863   
     axis 0 0 0   XYZ
    dof rx ry rz
    limits (-20.0 45.0)
           (-30.0 30.0)
           (-30.0 30.0)
  end
  begin
     id 13 
     name thorax
     direction -0.00347005 0.998773 0.0494011   
     length 2.14936   
     axis 0 0 0   XYZ
    dof rx ry rz
    limits (-20.0 45.0)
           (-30.0 30.0)
           (-30.0 30.0)
  end
  begin
     id 14 
     name lowerneck
     direction -0.0262159 0.99424 0.103921   
     length 1.69373   
     axis 0 0 0   XYZ
    dof rx ry rz
    limits (-20.0 45.0)
           (-30.0 30.0)
           (-30.0 30.0)
  end
  begin
     id 15 
     name upperneck
     direction 0.0353511 0.977394 -0.20845   
     length 1.70857   
     axis 0 0 0   XYZ
    dof rx ry rz
    limits (-20.0 45.0)
           (-30.0 30.0)
           (-30.0 30.0)
  end
  begin
     id 16
     name head
     direction 0.0139214 0.996594 -0.0812836  
     length 1.72777  
     axis 0 0 0   XYZ
    dof rx ry rz
    limits (-20.0 45.0)
           (-30.0 30.0)
           (-30.0 30.0)
  end
  begin
     id 17 
     name lclavicle
     direction 0.841247 0.537205 -0.0609508  
     length 3.55371  
     axis 0 0 0   XYZ
    dof ry rz
    limits (-20.0 10.0)
           (0.0 20.0)
  end
  begin
     id 18 
     name lhumerus
     direction 1 -4.48964e-011 1.60116e-018   
     length 4.91377   
     axis -180 -30 -90   XYZ
    dof rx ry rz
    limits (-60.0 90.0)
           (-90.0 90.0)
           (-90.0 90.0)
  end
  begin
     id 19
     name lradius
     direction 1 -4.48989e-011 -8.93847e-027   
     length 3.00291   
     axis -180 -30 -90   XYZ
    dof rx
    limits (-10.0 170.0)
  end
  begin
     id 20
     name lwrist
     direction 1 -4.48932e-011 -7.31504e-027   
     length 1.50145   
     axis 5.74121e-015 90 90   XYZ
    dof ry
    limits (-180.0 0.0)
 end
  begin
     id 21 
     name lhand
     direction 1 -4.48971e-011 -1.46301e-026   
     length 0.450922   
     axis 9.33524e-015 90 90   XYZ
    dof rx rz
    limits (-90.0 90.0)
           (-45.0 45.0)
  end
  begin
     id 22 
     name lfingers
     direction 1 -4.49039e-011 -2.92602e-026   
     length 0.363545   
     axis 1.86705e-014 90 90   XYZ
    dof rx
    limits (0.0 90.0)
  end
  begin
     id 23
     name lthumb
     direction 0.707107 -6.34941e-011 0.707107   
     length 0.52198   
     axis -90 45 2.85299e-015   XYZ
    dof rx rz
    limits (-45.0 45.0)
           (-45.0 45.0)
  end
  begin
     id 24 
     name rclavicle
     direction -0.825079 0.56158 -0.0622297   
     length 3.39909  
     axis 0 0 0   XYZ 
    dof ry rz
    limits (-10.0 20.0)
           (-20.0 0.0)
  end
  begin
     id 25 
     name rhumerus
     direction -1 -4.48965e-011 1.61691e-027  
     length 4.86725   
     axis -180 30 90   XYZ
    dof rx ry rz
    limits (-90.0 60.0)
           (-90.0 90.0)
           (-90.0 90.0)
  end
  begin
     id 26 
     name rradius
     direction -1 -4.48964e-011 -2.25776e-027   
     length 3.17144   
     axis -180 30 90   XYZ
    dof rx
    limits (-10.0 170.0)
  end
  begin
     id 27 
     name rwrist
     direction -1 -4.48961e-011 -7.31504e-027   
     length 1.58572   
     axis 5.74121e-015 -90 -90   XYZ
    dof ry
    limits (-180.0 0.0)
  end
  begin
     id 28
     name rhand
     direction -1 -4.49013e-011 -1.46301e-026   
     length 0.419368   
     axis 9.33524e-015 -90 -90   XYZ
    dof rx rz
    limits (-90.0 90.0)
           (-45.0 45.0)
  end
  begin
     id 29
     name rfingers
     direction -1 -4.489e-011 -2.92602e-026   
     length 0.338105   
     axis 1.86705e-014 -90 -90   XYZ
    dof rx
    limits (0.0 90.0)
  end
  begin
     id 30
     name rthumb
     direction -0.707107 -6.35022e-011 0.707107   
     length 0.485453   
     axis -90 -45 -2.85299e-015   XYZ
    dof rx rz
    limits (-45.0 45.0)
           (-45.0 45.0)
  end
:hierarchy
  begin
    root lhipjoint rhipjoint lowerback
    lhipjoint lfemur
    lfemur ltibia
    ltibia lfoot
    lfoot ltoes
    rhipjoint rfemur
    rfemur rtibia
    rtibia rfoot
    rfoot rtoes
    lowerback upperback
    upperback thorax
    thorax lowerneck lclavicle rclavicle
    lowerneck upperneck
    upperneck head
    lclavicle lhumerus
    lhumerus lradius
    lradius lwrist
    lwrist lhand lthumb
    lhand lfingers
    rclavicle rhumerus
    rhumerus rradius
    rradius rwrist
    rwrist rhand rthumb
    rhand rfingers
  end

#!OML:ASF H:\Swim 2\Project 1\Capture day 1\Session 1\male.ASF
:FULLY-SPECIFIED
:DEGREES
1662
root 2.56276 14.457 8.96077 107.419 2.97254 -6.011
lowerback -27.2355 10.2969 -3.77388
upperback -7.39575 14.9576 3.24783
thorax 4.47462 7.76437 9.99795
lowerneck -4.22739 -6.7564 26.1573
upperneck 24.3032 -8.32694 -19.0495
head 5.84094 -3.23386 -11.3017
rclavicle 2.06736e-013 1.38354e-013
rhumerus 58.787 -23.2236 3.15358
rradius 30.7672
rwrist -20.2598
rhand -32.6466 -6.12002
rfingers 7.12502
rthumb -5.87306 -36.0186
lclavicle 2.06736e-013 1.38354e-013
lhumerus -116.663 -53.8093 130.614
lradius 30.4046
lwrist -14.3529
lhand -40.3337 -21.2165
lfingers 7.12502
lthumb -13.2895 8.33981
rfemur -45.1658 -3.151 16.9418
rtibia 49.2596
rfoot 29.0444 2.35801
rtoes 18.1831
lfemur -49.3629 -7.99 -23.1693
ltibia 24.9361
lfoot 0.176951 18.9961
ltoes 0.276103
1663
root 2.5952 14.4542 8.94023 107.147 3.15084 -6.30332
lowerback -27.0387 10.3251 -3.64271
upperback -7.32573 14.9443 3.3552
thorax 4.46341 7.75466 10.0105
lowerneck -3.97772 -6.78176 26.0687
upperneck 24.4697 -8.26313 -19.1011
head 5.86233 -3.19559 -11.3068
rclavicle 6.04305e-014 -1.27222e-014
rhumerus 59.0269 -23.0264 2.61271
rradius 30.5535
rwrist -20.2691
rhand -32.8312 -6.10918
rfingers 7.12502
rthumb -6.05125 -36.0028
lclavicle 6.04305e-014 -1.27222e-014
lhumerus -114.476 -54.3205 127.821
lradius 29.0842
lwrist -13.0969
lhand -39.8869 -22.7093
lfingers 7.12502
lthumb -12.8588 6.8746
rfemur -45.3694 -2.90881 16.7643
rtibia 49.2191
rfoot 29.5049 2.54356
rtoes 17.8354
lfemur -49.0954 -7.08551 -24.1789
ltibia 25.7738
lfoot 0.75787 17.3687
ltoes -0.255367
1664
root 2.62623 14.4492 8.9175 106.874 3.33134 -6.6454
lowerback -26.8647 10.355 -3.50689
upperback -7.26677 14.9328 3.4653
thorax 4.45027 7.74662 10.0272
lowerneck -3.68194 -6.78733 25.9228
upperneck 24.5947 -8.16353 -19.1138
head 5.87678 -3.14296 -11.2835
rclavicle 3.49861e-014 -1.98785e-014
rhumerus 59.2515 -22.7563 2.13811
rradius 30.3326
rwrist -20.1477
rhand -32.9207 -6.16059
rfingers 7.12502
rthumb -6.13766 -36.0517
lclavicle 3.49861e-014 -1.98785e-014
lhumerus -111.763 -54.9136 124.447
lradius 27.7924
lwrist -11.2991
lhand -39.3495 -24.6034
lfingers 7.12502
lthumb -12.3406 5.01245
rfemur -45.6242 -2.60674 16.5847
rtibia 49.0542
rfoot 29.8374 2.72323
rtoes 17.4927
lfemur -48.8193 -6.20771 -25.1271
ltibia 26.815
lfoot 1.33879 15.8246
ltoes -0.532135
1665
root 2.65608 14.4419 8.89283 106.605 3.51593 -7.01922
lowerback -26.718 10.3822 -3.36193
upperback -7.22069 14.916 3.57776
thorax 4.43785 7.73646 10.0448
lowerneck -3.34727 -6.77081 25.7267
upperneck 24.6794 -8.02805 -19.0911
head 5.88527 -3.07588 -11.2348
rclavicle 3.49861e-014 4.29375e-014
rhumerus 59.4629 -22.4209 1.7234
rradius 30.1126
rwrist -19.9025
rhand -32.8941 -6.26789
rfingers 7.12502
rthumb -6.11193 -36.1597
lclavicle 3.49861e-014 4.29375e-014
lhumerus -108.493 -55.5578 120.465
lradius 26.4949
lwrist -9.28782
lhand -38.6709 -26.6139
lfingers 7.12502
lthumb -11.6863 3.04019
rfemur -45.9323 -2.26654 16.4128
rtibia 48.7715
rfoot 29.9929 2.87242
rtoes 17.1814
lfemur -48.5327 -5.39891 -25.9808
ltibia 28.0107
lfoot 1.91546 14.3864
ltoes -0.683766
1666
root 2.68499 14.4327 8.86668 106.344 3.70634 -7.40408
lowerback -26.5953 10.4012 -3.2017
upperback -7.18781 14.8844 3.69238
thorax 4.42763 7.71909 10.0569
lowerneck -2.9794 -6.7299 25.4933
upperneck 24.7211 -7.85595 -19.0426
head 5.88651 -2.99418 -11.1667
rclavicle -8.26944e-014 -3.4191e-014
rhumerus 59.6706 -22.0326 1.35243
rradius 29.9005
rwrist -19.5573
rhand -32.7413 -6.40612
rfingers 7.12502
rthumb -5.96446 -36.3022
lclavicle -8.26944e-014 -3.4191e-014
lhumerus -104.627 -56.2071 115.83
lradius 25.1615
lwrist -7.39034
lhand -37.8501 -28.4889
lfingers 7.12502
lthumb -10.8947 1.20851
rfemur -46.2903 -1.91053 16.2581
rtibia 48.3787
rfoot 29.9416 2.95478
rtoes 16.9218
lfemur -48.2267 -4.67746 -26.7317
ltibia 29.3128
lfoot 2.48089 13.0474
ltoes -0.836455
1667
root 2.71318 14.4222 8.83959 106.089 3.90256 -7.77829
lowerback -26.4882 10.4053 -3.02168
upperback -7.16776 14.8275 3.80842
thorax 4.41932 7.68893 10.0563
lowerneck -2.58114 -6.66378 25.2282
upperneck 24.7151 -7.64817 -18.9711
head 5.87862 -2.89839 -11.0809
rclavicle -3.18055e-015 1.59028e-015
rhumerus 59.8844 -21.6042 1.01004
rradius 29.7018
rwrist -19.1487
rhand -32.4691 -6.53992
rfingers 7.12502
rthumb -5.70167 -36.4432
lclavicle -3.18055e-015 1.59028e-015
lhumerus -100.123 -56.7984 110.485
lradius 23.772
lwrist -5.91166
lhand -36.9335 -30.0551
lfingers 7.12502
lthumb -10.0104 -0.31317
rfemur -46.6923 -1.56028 16.1276
rtibia 47.8842
rfoot 29.6738 2.92832
rtoes 16.7167
lfemur -47.8907 -4.04458 -27.3886
ltibia 30.6768
lfoot 3.0242 11.7839
ltoes -1.06067
1668
root 2.74081 14.4108 8.81215 105.838 4.10258 -8.12257
lowerback -26.3842 10.3879 -2.82029
upperback -7.15935 14.7357 3.92471
thorax 4.41058 7.64107 10.036
lowerneck -2.15303 -6.57322 24.928
upperneck 24.6551 -7.40772 -18.8711
head 5.85916 -2.79008 -10.9742
rclavicle -1.145e-013 -3.10104e-014
rhumerus 60.1131 -21.1486 0.680896
rradius 29.5193
rwrist -18.7069
rhand -32.1015 -6.6342
rfingers 7.12502
rthumb -5.3467 -36.5467
lclavicle -1.145e-013 -3.10104e-014
lhumerus -94.9314 -57.2477 104.357
lradius 22.318
lwrist -5.12104
lhand -35.9892 -31.2352
lfingers 7.12502
lthumb -9.09934 -1.45152
rfemur -47.1297 -1.23303 16.0238
rtibia 47.2948
rfoot 29.2001 2.75191
rtoes 16.5557
lfemur -47.5146 -3.48739 -27.9716
ltibia 32.064
lfoot 3.53421 10.5689
ltoes -1.36649
1669
root 2.76799 14.3995 8.78493 105.59 4.30235 -8.42249
lowerback -26.2698 10.3435 -2.60011
upperback -7.16081 14.6023 4.03971
thorax 4.39785 7.5722 9.99129
lowerneck -1.6967 -6.46017 24.5845
upperneck 24.5361 -7.13948 -18.7352
head 5.8262 -2.67183 -10.8423
rclavicle 6.04305e-014 3.26007e-014
rhumerus 60.3621 -20.6773 0.356052
rradius 29.3524
rwrist -18.2509
rhand -31.6758 -6.66301
rfingers 7.12502
rthumb -4.93572 -36.5855
lclavicle 6.04305e-014 3.26007e-014
lhumerus -89.0118 -57.4454 97.3771
lradius 20.8037
lwrist -5.23878
lhand -35.1124 -31.9792
lfingers 7.12502
lthumb -8.25329 -2.16037
rfemur -47.5923 -0.939998 15.944
rtibia 46.6138
rfoot 28.5504 2.39356
rtoes 16.4305
lfemur -47.0898 -2.9871 -28.5034
ltibia 33.4416
lfoot 3.99779 9.3814
ltoes -1.71506
1670
root 2.79474 14.389 8.75856 105.341 4.49676 -8.67128
lowerback -26.1334 10.2692 -2.36787
upperback -7.16964 14.4255 4.15201
thorax 4.37717 7.48144 9.92138
lowerneck -1.22234 -6.3292 24.196
upperneck 24.3642 -6.85197 -18.5681
head 5.78057 -2.548 -10.6873
rclavicle -4.45278e-014 -6.36111e-015
rhumerus 60.6324 -20.1998 0.0326199
rradius 29.1979
rwrist -17.7822
rhand -31.2381 -6.61297
rfingers 7.12502
rthumb -4.51306 -36.5449
lclavicle -4.45278e-014 -6.36111e-015
lhumerus -82.3606 -57.249 89.5107
lradius 19.2456
lwrist -6.42335
lhand -34.3945 -32.2643
lfingers 7.12502
lthumb -7.56035 -2.41941
rfemur -48.0668 -0.684337 15.8799
rtibia 45.8368
rfoot 27.7645 1.83824
rtoes 16.3301
lfemur -46.6098 -2.52248 -29.0052
ltibia 34.781
lfoot 4.40691 8.2125
ltoes -2.04811
1671
root 2.82109 14.3799 8.73393 105.089 4.68189 -8.86962
lowerback -25.9687 10.165 -2.1324
upperback -7.18319 14.2083 4.26084
thorax 4.34561 7.37052 9.82959
lowerneck -0.746704 -6.18571 23.7662
upperneck 24.1525 -6.55487 -18.3828
head 5.72539 -2.42355 -10.5165
rclavicle -3.18055e-014 -7.95139e-015
rhumerus 60.9233 -19.7257 -0.289847
rradius 29.0502
rwrist -17.2848
rhand -30.8326 -6.48782
rfingers 7.12502
rthumb -4.12144 -36.4277
lclavicle -3.18055e-014 -7.95139e-015
lhumerus -75.047 -56.4767 80.7956
lradius 17.6704
lwrist -8.76992
lhand -33.9172 -32.0553
lfingers 7.12502
lthumb -7.09966 -2.19438
rfemur -48.5373 -0.461287 15.8207
rtibia 44.9502
rfoot 26.8851 1.09231
rtoes 16.2411
lfemur -46.0711 -2.07177 -29.4924
ltibia 36.057
lfoot 4.76385 7.06446
ltoes -2.31998
1672
root 2.84713 14.3728 8.71237 104.834 4.85657 -9.02469
lowerback -25.7737 10.0346 -1.90204
upperback -7.19847 13.9585 4.36634
thorax 4.30191 7.24339 9.72228
lowerneck -0.289844 -6.03539 23.3061
upperneck 23.9168 -6.25763 -18.2003
head 5.66477 -2.30326 -10.3413
rclavicle 1.90833e-014 5.1684e-014
rhumerus 61.2344 -19.2658 -0.614772
rradius 28.9017
rwrist -16.7262
rhand -30.495 -6.30056
rfingers 7.12502
rthumb -3.79551 -36.2465
lclavicle 1.90833e-014 5.1684e-014
lhumerus -67.2541 -54.905 71.3825
lradius 16.1145
lwrist -12.314
lhand -33.7295 -31.3127
lfingers 7.12502
lthumb -6.91848 -1.44576
rfemur -48.9834 -0.259147 15.7554
rtibia 43.9329
rfoot 25.9484 0.183722
rtoes 16.1583
lfemur -45.4736 -1.61599 -29.972
ltibia 37.2506
lfoot 5.08045 5.94874
ltoes -2.51173
